<svg enable-background="new 0 0 299.2 250.5" viewBox="0 0 299.2 250.5" xmlns="http://www.w3.org/2000/svg" xmlns:xlink="http://www.w3.org/1999/xlink"><linearGradient id="a"><stop offset="0" stop-color="#e41438"/><stop offset="1" stop-color="#c21e30"/></linearGradient><linearGradient id="b" gradientUnits="userSpaceOnUse" x1="-310.4102" x2="-203.931" xlink:href="#a" y1="7.3246" y2="7.3246"/><clipPath id="c"><path d="m-299.3-165.3h4.5v5.7h-4.5z"/></clipPath><linearGradient id="d" gradientUnits="userSpaceOnUse" x1="2.53" x2="36.5232" xlink:href="#a" y1="19.2465" y2="19.2465"/><g opacity=".6"><path d="m290 175.9h-89.1v-51.6h89.1zm-88.6-.5h88v-50.5h-88z" fill="#e0e0e0"/><g fill="#f0f0f0"><path d="m212.8 151.8h58.8v1.7h-58.8z"/><path d="m212.8 158.3h62.8v1.9h-62.8z"/><path d="m212.8 164.8h62.8v1.9h-62.8z"/><path d="m212.8 142.5h20.5v4.5h-20.5z"/></g><path d="m201.1 124.6h88.6v8.2h-88.6z" fill="#e0e0e0"/><path d="m282.9 131.6c-.1-.1 1-1.5 2.5-3.1s2.8-2.8 3-2.7c.1.1-1 1.5-2.5 3.1-1.6 1.6-2.9 2.8-3 2.7z" fill="#fff"/><path d="m288.4 131.6c-.1.1-1.4-1.1-3-2.7-1.5-1.6-2.7-3-2.5-3.1.1-.1 1.4 1.1 3 2.7 1.4 1.6 2.6 3 2.5 3.1z" fill="#fff"/><path d="m61.7 22.5h88.6v51h-88.6z" fill="#e6e6e6"/><path d="m73.4 49.7h58.8v1.7h-58.8z" fill="#f0f0f0"/><path d="m73.4 56.1h62.8v1.9h-62.8z" fill="#f0f0f0"/><path d="m73.4 62.6h62.8v1.9h-62.8z" fill="#f0f0f0"/><path d="m73.4 40.4h20.5v4.5h-20.5z" fill="#f0f0f0"/><path d="m61.7 22.5h88.6v8.2h-88.6z" fill="#e0e0e0"/><path d="m143.2 29.4c-.1-.1 1-1.5 2.5-3.1s2.8-2.8 3-2.7c.1.1-1 1.5-2.5 3.1-1.6 1.6-2.9 2.8-3 2.7z" fill="#fff"/><path d="m148.7 29.4c-.1.1-1.4-1.1-3-2.7-1.5-1.6-2.7-3-2.5-3.1.1-.1 1.4 1.1 3 2.7 1.5 1.6 2.6 3 2.5 3.1z" fill="#fff"/><path d="m116.8 117.3h-89.1v-51.6h89.1zm-88.6-.6h88v-50.5h-88z" fill="#e0e0e0"/><path d="m39.6 93.2h58.8v1.7h-58.8z" fill="#f0f0f0"/><path d="m39.6 99.6h62.8v1.9h-62.8z" fill="#f0f0f0"/><path d="m39.6 106.1h62.8v1.9h-62.8z" fill="#f0f0f0"/><path d="m39.6 83.9h20.5v4.5h-20.5z" fill="#f0f0f0"/><path d="m27.9 66h88.6v8.2h-88.6z" fill="#e0e0e0"/><path d="m115 129.1h104.6v93.6h-104.6z" fill="#e6e6e6"/><path d="m38.4 99.6h81.9v85.1h-81.9z" fill="#f0f0f0"/><path d="m38.4 99.6h81.9v9.3h-81.9z" fill="#e0e0e0"/><path d="m45.1 104.1c0 1-.8 1.8-1.7 1.8s-1.7-.8-1.7-1.8.8-1.8 1.7-1.8c1 0 1.7.9 1.7 1.8z" fill="#fff"/><path d="m52.1 104.1c0 1-.8 1.8-1.7 1.8s-1.7-.8-1.7-1.8.8-1.8 1.7-1.8 1.7.9 1.7 1.8z" fill="#fff"/><path d="m59.1 104.1c0 1-.8 1.8-1.7 1.8s-1.7-.8-1.7-1.8.8-1.8 1.7-1.8 1.7.9 1.7 1.8z" fill="#fff"/><path d="m173.7 41.1h104.6v104.2h-104.6z" fill="#f0f0f0"/><path d="m173.7 41.1h104.6v12.2h-104.6z" fill="#e0e0e0"/><path d="m182.6 47.1c0 1.3-1 2.4-2.3 2.4-1.2 0-2.3-1.1-2.3-2.4s1-2.4 2.3-2.4 2.3 1.1 2.3 2.4z" fill="#fff"/><path d="m191.1 45.5c.9.9 1 2.4.1 3.3s-2.4.9-3.3-.1c-.9-.9-1-2.4-.1-3.3s2.4-.9 3.3.1z" fill="#fff"/><path d="m201 47.1c0 1.3-1 2.4-2.3 2.4s-2.3-1.1-2.3-2.4 1-2.4 2.3-2.4 2.3 1.1 2.3 2.4z" fill="#fff"/></g><path d="m225.7 250.4c0 .1-37.8.1-84.3.1-46.6 0-84.3-.1-84.3-.1 0-.1 37.7-.1 84.3-.1 46.5-.1 84.3 0 84.3.1z" fill="#263239" opacity=".6"/><g opacity=".6"><path d="m218.9 183.8c-8.4-5.9-10.3-16.8-10-26.6.1-1.6-.1-3.4.7-4.8s2.6-2.4 4.1-1.7c1.2.6 1.7 2 2.4 3.2.9 1.6 2.2 2.8 3.8 3.7 1 .5 2.3.9 3.4.3 1.4-.8 1.6-2.7 1.6-4.4 0-3 0-6.1-.1-9.1 0-1.6 0-3.3.5-4.8s1.6-3 3.2-3.4c1.5-.4 3.5.5 3.8 2 .1.7 0 1.3 0 2s.4 1.4 1 1.6 1.3-.3 1.8-.7c1.7-1.6 2.8-3.8 3.9-5.9s2.1-4.3 3.6-6c1.5-1.8 3.6-3.2 6-3.3 2.3-.1 4.8 1.3 5.4 3.6s-.7 4.6-2.2 6.5c-2.2 2.8-4.7 5.2-7.6 7.2-.5.4-1.1.8-1.3 1.4-.4 1.1.7 2.2 1.7 2.5 1.2.4 2.5.3 3.8.4s2.6.7 3.1 1.9c.7 1.7-.7 3.4-2.1 4.5-2.7 2.3-5.9 4.1-9.2 5.3-1.2.4-2.5.8-3.4 1.7-1 .8-1.5 2.3-1 3.4.6 1.1 2.1 1.5 3.3 1.3 1.3-.2 2.4-.9 3.6-1.4 2.2-.8 5.1-.7 6.5 1.2.9 1.3 1 3 .5 4.5s-1.4 2.8-2.5 4c-3.6 4.2-8.2 7.6-13.3 9.4-5.1 1.9-9.9 2.4-15 .5" fill="#e9505b"/><g fill="#263239"><path d="m251.5 127.2s0 .1-.2.2c-.1.1-.3.2-.5.4-.4.4-1.1.9-1.8 1.7-1.6 1.5-3.8 3.7-6.2 6.7-1.2 1.5-2.5 3.2-3.8 5.1s-2.7 3.9-4.1 6c-1.4 2.2-2.8 4.5-4 6.9-.6 1.2-1.2 2.5-1.8 3.9-.6 1.3-1.1 2.7-1.7 4-2.3 5.5-4.3 10.7-5.8 15.6s-2.3 9.5-2.7 13.3c-.4 3.9-.3 7-.2 9.2.1 1.1.2 1.9.2 2.5 0 .3.1.5.1.6v.2s0-.1 0-.2c0-.2-.1-.4-.1-.6-.1-.6-.2-1.4-.3-2.5-.2-2.2-.3-5.3.1-9.2s1.2-8.5 2.7-13.4c1.4-4.9 3.5-10.2 5.8-15.7.6-1.4 1.2-2.7 1.7-4 .6-1.3 1.1-2.6 1.8-3.9 1.3-2.5 2.6-4.8 4-7s2.8-4.1 4.1-6 2.6-3.6 3.8-5.1c2.4-3 4.7-5.2 6.3-6.7.8-.7 1.4-1.3 1.9-1.6.2-.2.4-.3.5-.4z"/><path d="m230.8 154s-.1-.2-.2-.7c-.1-.4-.2-1.1-.3-1.9-.2-1.6-.5-3.9-.7-6.3-.3-2.5-.5-4.7-.8-6.3-.1-.8-.2-1.5-.3-1.9s-.1-.7-.1-.7.1.2.2.7c.1.4.3 1.1.4 1.9.3 1.6.6 3.8.9 6.3.2 2.4.5 4.7.6 6.3.1.8.2 1.4.2 1.9.1.5.1.7.1.7z"/><path d="m251.7 150.1s-.3.1-.8.1-1.3.1-2.3.2c-1.9.2-4.5.6-7.4 1.1s-5.5 1.2-7.3 1.7c-.9.2-1.7.5-2.2.6s-.8.2-.8.2.3-.1.8-.3 1.3-.4 2.2-.7c1.9-.5 4.4-1.2 7.3-1.7s5.5-.9 7.5-1c1-.1 1.7-.1 2.3-.1.4-.1.7-.1.7-.1z"/><path d="m221.7 177.3s-.1-.1-.1-.3c-.1-.2-.2-.5-.4-.8-.3-.7-.7-1.6-1.2-2.8-1-2.4-2.3-5.7-3.7-9.5-1.4-3.7-2.6-7.1-3.6-9.5-.5-1.2-.9-2.1-1.1-2.9-.1-.3-.2-.6-.3-.8s-.1-.3-.1-.3.1.1.1.3c.1.2.2.5.4.8.3.7.7 1.6 1.2 2.8 1 2.4 2.3 5.7 3.7 9.5 1.4 3.7 2.6 7.1 3.6 9.5.5 1.2.9 2.1 1.1 2.9.1.3.2.6.3.8 0 .2.1.3.1.3z"/><path d="m249.4 168.3s-.1 0-.3.1-.5.2-.8.3c-.7.2-1.8.6-3 1-2.5.8-6 2-9.8 3.3s-7.3 2.4-9.8 3.2c-1.3.4-2.3.7-3 .9-.3.1-.6.2-.8.2s-.3.1-.3.1.1 0 .3-.1.5-.2.8-.3c.7-.2 1.8-.6 3-1 2.5-.8 6-2 9.8-3.3s7.3-2.4 9.8-3.2c1.3-.4 2.3-.7 3-.9.3-.1.6-.2.8-.2.2-.1.3-.1.3-.1z"/></g></g><g opacity=".6"><path d="m232.3 21.9-2.8 1-1.2-3.7c-2.2-6.7-9.3-10.4-15.7-8.1-6.5 2.3-9.9 9.7-7.7 16.4l1.2 3.7-2.8 1c-2.2.8-3.4 3.3-2.6 5.6l7.8 23.8c.8 2.3 3.2 3.6 5.4 2.8l29-10.4c2.2-.8 3.4-3.3 2.6-5.6l-7.8-23.8c-.8-2.2-3.2-3.5-5.4-2.7zm-22.1 3.8c-1.2-3.7.7-7.7 4.2-9s7.4.7 8.6 4.4l1.2 3.7-12.8 4.6zm16.3 21.2 2 6.1c.1.3-.1.5-.3.6l-2.8 1c-.2.1-.5 0-.6-.3l-2-6.1c-2.2-.1-4.2-1.5-4.9-3.8-1-2.9.5-6.2 3.4-7.2 2.8-1 5.9.6 6.9 3.5.7 2.3-.1 4.7-1.7 6.2z" fill="#e9505b"/><g fill="#263239"><path d="m229.4 22.9c0 .1-5.2 2-11.7 4.4-6.5 2.3-11.7 4.2-11.8 4.1 0-.1 5.2-2 11.7-4.4s11.7-4.2 11.8-4.1z"/><path d="m235.5 23.9s0 0 .1.1c0 .1.1.3.2.4.1.4.3.9.6 1.6.5 1.5 1.2 3.5 2.1 6.1s1.9 5.6 3.1 9c.6 1.7 1.2 3.5 1.8 5.3.3.9.5 1.9.4 3 0 .5-.2 1-.4 1.5-.3.5-.6.9-1 1.2-.8.7-1.8 1.1-2.8 1.4-.9.3-1.9.7-2.8 1-1.8.7-3.6 1.3-5.3 1.9-3.4 1.2-6.4 2.3-9 3.2-2.5.9-4.6 1.6-6.1 2.1-.7.2-1.3.4-1.7.6-.2.1-.3.1-.4.1s-.1 0-.2 0c0 0 0 0 .1-.1.1 0 .2-.1.4-.2.4-.1.9-.4 1.6-.6 1.4-.5 3.5-1.3 6-2.2 2.6-.9 5.6-2 9-3.3 1.7-.6 3.5-1.2 5.3-1.9.9-.3 1.9-.7 2.8-1s1.9-.7 2.7-1.4c.4-.3.7-.7 1-1.1.2-.4.4-.9.4-1.4.1-1-.1-2-.4-2.9-.6-1.9-1.2-3.6-1.8-5.3-1.1-3.4-2.1-6.5-3-9-.8-2.6-1.5-4.6-2-6.1-.2-.7-.4-1.3-.5-1.7-.1-.2-.1-.3-.1-.4-.1.1-.1.1-.1.1z"/><path d="m220.2 16.4s-.3-.1-.8-.4c-.5-.2-1.3-.4-2.4-.5-1 0-2.3.1-3.5.7-1.2.5-2.5 1.5-3.3 2.8-.9 1.3-1.3 2.8-1.3 4.1 0 1.4.3 2.6.6 3.6s.6 1.8.8 2.3.3.9.3.9-.2-.3-.4-.8-.5-1.3-.9-2.3c-.3-1-.6-2.2-.6-3.6s.4-3 1.3-4.3 2.2-2.3 3.5-2.9c1.3-.5 2.6-.7 3.6-.6 1.1.1 1.9.3 2.4.6.3.1.5.2.6.3 0 0 .1.1.1.1z"/><path d="m220.5 37.6s.1-.1.3-.1c.2-.1.5-.2.8-.3.4-.1.8-.2 1.4-.2s1.2 0 1.9.3c1.4.5 2.7 1.9 3.3 3.8.3 1 .3 2.1 0 3.1-.3 1.1-.9 2.1-1.8 2.9v-.1c.7 2 1.5 4.1 2.3 6.4v.1h-.1c-.4.1-.8.3-1.2.4-.9.3-1.8.6-2.7.9h-.1v-.1c-.7-2.3-1.6-4.4-2.2-6.4l.1.1c-1.1-.1-2.1-.5-2.9-1.2-.8-.6-1.4-1.4-1.8-2.2s-.6-1.7-.6-2.4c0-.8.2-1.5.5-2.1.5-1.2 1.3-2 1.8-2.4.6-.4 1-.5 1-.5s-.3.2-.9.6c-.5.4-1.3 1.2-1.7 2.4-.5 1.2-.7 2.8.2 4.4.4.8 1 1.5 1.8 2.1s1.7 1 2.8 1.1h.1v.1c.6 2 1.4 4.1 2.2 6.4l-.2-.1c.9-.3 1.8-.6 2.7-.9.4-.1.8-.3 1.2-.4l-.1.2c-.8-2.2-1.6-4.4-2.3-6.4v-.1l.1-.1c.8-.8 1.4-1.8 1.7-2.8s.3-2.1 0-3c-.6-1.8-1.8-3.2-3.1-3.7-.7-.3-1.3-.3-1.8-.3-.6 0-1 .1-1.4.2-1 .2-1.3.4-1.3.3z"/></g></g><g fill="#e9505b" opacity=".6"><path d="m72.7 95.7s-.1 0-.3 0-.4 0-.7.1c-.3 0-.7.1-1.2.2-.2 0-.5.1-.8.1-.3.1-.5.2-.8.2-1.2.4-2.6 1-4 2s-2.8 2.5-3.9 4.4c-.6.9-1 2-1.4 3.2-.3 1.2-.6 2.4-.6 3.7-.1.6 0 1.3 0 2 0 .3.1.7.1 1s.1.7.2 1c.3 1.4.8 2.7 1.5 3.9 1.4 2.5 3.7 4.7 6.6 6 1.4.6 3 1 4.7 1 1.6.1 3.3-.2 4.9-.7l.5-.2h.1.1c2.3 1.2 4.6 2.4 6.9 3.5l-.2.2c-.7-2.3-1.4-4.5-2.1-6.6v-.1l.1-.1c1.7-1.7 2.9-3.8 3.6-6s.8-4.4.5-6.4-.9-3.9-1.8-5.4-2-2.8-3.1-3.8-2.3-1.6-3.4-2.1-2-.7-2.8-.9c-.4-.1-.8-.1-1.1-.2-.3 0-.6 0-.8-.1-.2 0-.4 0-.5 0-.3.1-.3.1-.3.1h.2.5.8c.3 0 .7.1 1.1.2.8.1 1.8.4 2.9.9s2.3 1.2 3.4 2.1c1.1 1 2.3 2.3 3.2 3.8.9 1.6 1.6 3.4 1.9 5.5.3 2 .2 4.3-.5 6.5s-1.9 4.3-3.7 6.1v-.1c.7 2.1 1.4 4.3 2.1 6.6l.1.3-.3-.2c-2.2-1.1-4.5-2.3-6.9-3.5h.1l-.5.2c-1.6.6-3.3.8-5 .7s-3.3-.4-4.8-1.1c-3-1.3-5.3-3.6-6.7-6.2-.7-1.3-1.3-2.6-1.5-4-.1-.3-.1-.7-.2-1 0-.3-.1-.7-.1-1 0-.7-.1-1.3 0-2 0-1.3.3-2.6.6-3.7.4-1.2.8-2.2 1.4-3.2 1.1-1.9 2.6-3.4 4-4.4s2.9-1.6 4.1-2c.3-.1.6-.2.9-.2.3-.1.5-.1.8-.1.5-.1.9-.1 1.2-.1h.7c.1-.1.2-.1.2-.1z"/><path d="m75.8 108.4h-1l-2.2-3.1v-2s-1.6-.1-1.4 2.5 0 2 0 2-3.3 0-3.6.3c-.2.2-.3 3.5-.3 5.3 0 .9.5 1.7 1.4 1.9h.4c.8 0 5-.7 5-.7h1.7z"/><path d="m78.6 107.8-.6 6.9h-1.7v-6.7z"/></g><g transform="translate(409 100)"><path d="m-300.4-94.8h92.5c6.2 0 11.2 5 11.2 11.2v215.8c0 6.2-5 11.2-11.2 11.2h-92.5c-6.2 0-11.2-5-11.2-11.2v-215.8c0-6.1 5-11.2 11.2-11.2z" fill="#adadb8"/><circle cx="-254.2" cy="130.8" fill="#2d3339" opacity=".2" r="7"/><path d="m-304.6-70.9h100.9c1.5 0 2.8 1.3 2.8 2.8v184.9c0 1.5-1.3 2.8-2.8 2.8h-100.9c-1.5 0-2.8-1.3-2.8-2.8v-184.9c0-1.6 1.2-2.8 2.8-2.8z" fill="#e4e4e5"/><g fill="#2d3339"><path d="m-261.9-83.6h15.4c.4 0 .7.3.7.7 0 .4-.3.7-.7.7h-15.4c-.4 0-.7-.3-.7-.7 0-.3.3-.7.7-.7z" opacity=".2"/><circle cx="-270.3" cy="-82.9" opacity=".2" r="2.1"/></g></g><g transform="translate(412 117)"><path d="m-307.6-87.9h100.9c1.5 0 2.8 1.3 2.8 2.8v184.9c0 1.5-1.3 2.8-2.8 2.8h-100.9c-1.5 0-2.8-1.3-2.8-2.8v-184.9c0-1.6 1.2-2.8 2.8-2.8z" fill="url(#b)"/><g transform="translate(8 8)"><path d="m-298.8-48.4h67.2c4.6 0 8.4 3.8 8.4 8.4 0 4.6-3.8 8.4-8.4 8.4h-67.2c-4.6 0-8.4-3.8-8.4-8.4 0-4.7 3.8-8.4 8.4-8.4z" fill="#262544" transform="translate(0 108)"/><g fill="#fff"><g transform="translate(0 108)"><path d="m-280.4-39.4h-.6v1.5h-.6v-3.9h1c.6 0 .8.1 1 .2.3.2.5.5.5 1 0 .7-.6 1.2-1.3 1.2zm.4-1.7c-.1-.1-.3-.2-.5-.2h-.5v1.4h.5c.5 0 .7-.2.7-.7 0-.3-.1-.4-.2-.5z"/><path d="m-278.6-38v-3.9h2.2l-.1.5h-1.4v1.1h1.2v.5h-1.2v1.2h1.6v.5h-2.3z"/><path d="m-273.7-41.3h-1.4v3.3h-.6v-3.9h2.1z"/><path d="m-271-38v-2.2c0-.2 0-.6 0-.8-.1.2-.2.5-.3.7l-1.2 2.3h-.7v-3.9h.6v2.2.7c.1-.3.2-.5.3-.7l1.1-2.3h.7v3.9h-.5z"/><path d="m-268-37.9c-.5 0-.9-.2-1.2-.6s-.4-.8-.4-1.4c0-.5.1-.8.3-1.2.3-.6.8-.9 1.4-.9.4 0 .7.1 1 .3l-.3.4c-.2-.2-.4-.2-.7-.2s-.6.2-.8.5c-.1.2-.2.6-.2 1 0 .5 0 .7.2 1 .2.4.5.5.9.5.3 0 .5-.1.7-.2l.3.4c-.4.3-.8.4-1.2.4z"/><path d="m-264.1-41.3h-1v3.3h-.6v-3.3h-1v-.5h2.7z"/><path d="m-262.4-39.4h-.6v1.5h-.6v-3.9h1c.6 0 .8.1 1 .2.3.2.5.5.5 1 0 .7-.6 1.2-1.3 1.2zm.4-1.7c-.1-.1-.3-.2-.5-.2h-.5v1.4h.5c.5 0 .7-.2.7-.7 0-.3-.1-.4-.2-.5z"/><path d="m-258.7-38-.3-1h-1.3l-.3 1h-.7l1.3-3.9h.7l1.2 3.9zm-.5-1.5c-.2-.6-.3-1.1-.5-1.7-.2.6-.3 1.1-.5 1.7z"/><path d="m-256.9-41.8v3.3h1.3v-3.3h.6v3.3h.4v1.5h-.6v-1h-2.3v-3.9h.6z"/><path d="m-251.9-38v-2.2c0-.2 0-.6 0-.8-.1.2-.2.5-.3.7l-1.2 2.3h-.7v-3.9h.6v2.2.7c.1-.3.2-.5.3-.7l1.1-2.3h.7v3.9h-.5z"/><path d="m-248.5-38v-1.6h-.3c-.1 0-.4 0-.5.1s-.2.3-.2.4l-.1.4c0 .2-.1.4-.2.5-.2.2-.4.2-.5.2h-.3l-.1-.5h.1c.1 0 .2-.1.3-.1.1-.1.1-.2.2-.3l.1-.4c.1-.3.2-.4.2-.4.1-.1.2-.2.3-.2-.1 0-.3-.1-.5-.3-.1-.1-.3-.3-.3-.7 0-.3.1-.5.3-.7.3-.3.7-.3 1-.3h1.2v3.9zm-.5-3.3c-.1 0-.4 0-.5.2-.1.1-.2.2-.2.4 0 .1 0 .3.2.5s.4.2.6.2h.4v-1.2h-.5z"/><path d="m-303.7-73h76.1c2.2 0 4 1.8 4 4v4.9c0 2.2-1.8 4-4 4h-76.1c-2.2 0-4-1.8-4-4v-4.9c.1-2.3 1.8-4 4-4z"/><path d="m-303.2-97.2h76.1c2.2 0 4 1.8 4 4v4.9c0 2.2-1.8 4-4 4h-76.1c-2.2 0-4-1.8-4-4v-4.9c0-2.3 1.8-4 4-4z"/><path d="m-303.2-121.5h76.1c2.2 0 4 1.8 4 4v4.8c0 2.2-1.8 4-4 4h-76.1c-2.2 0-4-1.8-4-4v-4.8c0-2.3 1.8-4 4-4z"/><path d="m-303.2-145.5h76.2c2.2 0 4 1.8 4 4v4.9c0 2.2-1.8 4-4 4h-76.2c-2.2 0-4-1.8-4-4v-4.9c0-2.3 1.8-4 4-4z"/><path d="m-303.7-123.2v-2.7c0-.1 0-.5 0-.7 0 .1-.1.3-.2.4l-1.6 3h-.5v-3.8h.5v2.7.6c.1-.2.2-.4.2-.5l1.5-2.8h.5v3.8z"/><path d="m-301.6-126 .5 1.6c0 .1.1.4.2.6 0-.1.1-.4.2-.6l.5-1.7h.6l.3 2.8h-.4l-.2-1.9c0-.1 0-.4 0-.5 0 .2-.1.4-.1.4l-.6 1.9h-.4l-.6-1.9c0-.1-.1-.4-.1-.4v.4l-.2 2h-.4l.3-2.8h.4z"/><path d="m-296.8-126v2.8h-.4v-1.2h-.4c-.1 0-.2 0-.3.1s-.1.2-.2.3l-.1.4c0 .1-.1.3-.2.3-.1.1-.2.1-.4.2h-.2l-.1-.3h.1s.1-.1.2-.1c.1-.1.1-.1.1-.2l.2-.4s.1-.2.1-.3c0 0 .1-.1.2-.1-.1 0-.3-.1-.4-.2s-.2-.3-.2-.4c0-.2 0-.4.3-.6.2-.2.5-.2.7-.2h1zm-.4.3h-.5c-.2 0-.3 0-.4.1s-.1.2-.1.3 0 .3.1.3c.1.1.3.1.5.1h.4z"/><path d="m-304.7-147.4v-.6h-.1c-.4 0-.7-.1-.9-.3-.4-.3-.4-.9-.4-1.1s0-.8.4-1.1c.2-.2.5-.3.9-.3h.1v-.6h.5v.6h.1c.4 0 .7.1.9.3.4.3.4.9.4 1.1s0 .8-.4 1.1c-.2.2-.5.3-.9.3h-.1v.6zm-.1-3.2c-.2 0-.4 0-.6.2-.3.2-.3.6-.3.9s0 .7.3.9c.2.2.4.2.6.2h.1zm.6 2.3c.3 0 .5 0 .7-.2.3-.2.3-.6.3-.9s0-.7-.3-.9c-.2-.2-.4-.2-.6-.2h-.1z"/><path d="m-300.1-147.3c-.2-.1-.3-.2-.4-.4-.3.3-.6.4-.8.4-.6 0-.9-.3-.9-.8 0-.3.1-.6.4-.7.3-.2.8-.3 1.1-.3h.2v-.2-.1c0-.1 0-.2-.1-.3s-.3-.1-.4-.1c-.2 0-.4.1-.5.1-.1.1-.3.1-.4.2l-.2-.3c.2-.1.4-.2.5-.3.2-.1.4-.1.6-.1.5 0 .7.3.8.4s.1.3.1.5v.1.9.2c0 .2 0 .4.2.5zm-.4-1.5c-.1 0-.2 0-.2 0-.3 0-.6 0-.8.2-.2.1-.2.3-.2.5s.1.3.1.4c.1.1.2.1.4.1.3 0 .5-.1.7-.4z"/><path d="m-298.4-150.2.5 1.6c0 .1.1.4.2.6 0-.1.1-.4.2-.6l.5-1.7h.6l.3 2.8h-.4l-.2-1.9c0-.1 0-.4 0-.5 0 .2-.1.4-.1.4l-.6 1.9h-.4l-.6-1.9c0-.1-.1-.4-.1-.4v.4l-.2 2h-.4l.3-2.8h.4z"/><path d="m-295.4-150.2.4-.1v1.7.6c.1-.2.2-.4.3-.6l1-1.7.4-.1v2.9h-.4v-1.7-.6c-.1.2-.2.4-.3.6l-1 1.7h-.4z"/><path d="m-290.5-150.2v2.8h-.4v-2.5h-.7v.4c0 .2-.1.6-.1.8s0 .4-.1.5c0 .3-.1.4-.2.5s-.3.1-.4.2h-.2l-.1-.3h.1c.1 0 .1 0 .2-.1.2-.1.2-.2.3-.8.1-.8.1-.8.1-1l.1-.7h1.4z"/><path d="m-289.6-150.2.4-.1v1.7.6c.1-.2.2-.4.3-.6l1-1.7.4-.1v2.9h-.4v-1.7-.6c-.1.2-.2.4-.3.6l-1 1.7h-.4z"/><path d="m-284.6-150.2v2.8h-.4v-1.2h-.4c-.1 0-.2 0-.3.1s-.1.2-.2.3l-.1.4c0 .1-.1.3-.2.3-.1.1-.2.1-.4.2h-.2l-.1-.3h.1s.1-.1.2-.1c.1-.1.1-.1.1-.2l.2-.4s.1-.2.1-.3c0 0 .1-.1.2-.1-.1 0-.3-.1-.4-.2s-.2-.3-.2-.4c0-.2 0-.4.3-.6.2-.2.5-.2.7-.2h1zm-.4.4h-.5c-.2 0-.3 0-.4.1s-.1.2-.1.3 0 .3.1.3c.1.1.3.1.5.1h.4z"/><path d="m-303.5-102.1c.2.2.4.7.4 1.5s-.3 1.2-.4 1.5c-.3.4-.8.5-1.1.5s-.8-.1-1.1-.5c-.2-.2-.4-.7-.4-1.5s.3-1.2.4-1.5c.3-.4.8-.5 1.1-.5s.8.1 1.1.5zm-1.9.3c-.1.2-.2.5-.2 1.2s.1 1 .2 1.2c.2.3.5.5.8.5s.6-.1.8-.5c.1-.2.2-.5.2-1.2s-.1-1-.2-1.2c-.2-.3-.5-.5-.8-.5s-.6.2-.8.5z"/><path d="m-301.5-98.7h-.4v-2.4h-.8v-.4h2.1v.4h-.8v2.4z"/><path d="m-299.9-100.5c0 .1 0 .2.1.3s.3.1.4.1c.2 0 .4 0 .6-.1v-1.3l.4-.1v2.9h-.4v-1.2c-.3.1-.4.1-.6.1s-.5 0-.7-.3c-.2-.2-.2-.4-.2-.6v-.9l.4-.1z"/><path d="m-297.1-100c0 .2 0 .5.1.7s.4.3.7.3c.2 0 .4 0 .7-.3l.2.3c-.3.2-.6.4-.9.4-.5 0-.8-.2-.9-.4-.3-.3-.3-.7-.3-1.1 0-.3 0-.7.3-1 .2-.2.4-.4.9-.4.3 0 .6.1.8.3s.2.4.2.4c0 .2.1.4.1.8v.1h-1.9zm1.3-.4c0-.2 0-.5-.1-.6s-.3-.2-.5-.2-.4.1-.5.3-.2.4-.1.6h1.2z"/><path d="m-292.7-99c-.1.1-.2.2-.4.3-.1.1-.3.1-.5.1-.4 0-.7-.2-.9-.4s-.3-.5-.3-1c0-.6.2-1 .4-1.2.3-.2.5-.3.7-.3s.5 0 .8.3l-.2.3c-.2-.2-.4-.2-.5-.2s-.3 0-.5.2c-.1.2-.2.5-.2.9 0 .2 0 .5.2.8.1.2.4.3.5.3.2 0 .3-.1.4-.1s.1-.1.2-.2z"/><path d="m-291.4-98.7h-.4v-2.4h-.8v-.4h2.1v.4h-.8v2.4z"/><path d="m-289-101.5c.2 0 .4 0 .6.1.2.2.3.4.3.6s-.1.3-.2.4-.1.1-.3.2c.1 0 .3.1.4.2s.2.3.2.5c0 .3-.1.5-.2.6-.2.2-.5.2-.7.2h-1.1v-2.8zm-.6 1.2h.7c.1 0 .3 0 .3-.1.1-.1.1-.1.1-.3s-.1-.3-.1-.3c-.1-.1-.2-.1-.3-.1h-.7zm0 1.3h.7c.2 0 .3-.1.4-.1 0 0 .1-.1.1-.4 0-.1 0-.3-.2-.4-.1-.1-.2-.1-.3-.1h-.7z"/><path d="m-285.3-101.2c.2.3.3.7.3 1.1 0 .5-.1.8-.3 1.1s-.6.4-.9.4-.7-.1-.9-.4c-.2-.2-.3-.6-.3-1.1 0-.4.1-.8.3-1.1s.6-.4.9-.4.7.2.9.4zm-1.5.3c0 .1-.1.3-.1.8s.1.7.1.8c.1.1.2.4.6.4.3 0 .5-.2.6-.4 0-.1.1-.3.1-.8s-.1-.7-.1-.8c-.1-.1-.2-.4-.6-.4-.3.1-.5.3-.6.4z"/><path d="m-303.6-75.2h.4v1.4h-.4v-1h-2.3v1h-.4v-1.4h.2c.3-.6.4-1.1.5-1.2.2-.6.2-1.1.2-1.7v-.6h1.8zm-1.5-2.6c0 .2-.1.9-.2 1.5-.1.4-.3.8-.4 1.1h1.6v-3.1h-1z"/><path d="m-300.7-74.8c-.2-.1-.3-.2-.4-.4-.3.3-.6.4-.8.4-.6 0-.9-.3-.9-.8 0-.3.1-.6.4-.7.3-.2.8-.3 1.1-.3h.2v-.2-.1c0-.1 0-.2-.1-.3s-.3-.1-.4-.1c-.2 0-.4.1-.5.1-.1.1-.3.1-.4.2l-.2-.3c.2-.1.4-.2.5-.3.2-.1.4-.1.6-.1.5 0 .7.3.8.4s.1.3.1.5v.1.9.2c0 .2 0 .4.2.5zm-.4-1.5c-.1 0-.2 0-.2 0-.3 0-.6 0-.8.2-.2.1-.2.3-.2.5s.1.3.1.4c.1.1.2.1.4.1.3 0 .5-.1.7-.4z"/><path d="m-299.1-74.9h-.4v-2.4h-.8v-.4h2.1v.4h-.8v2.4z"/><path d="m-296-74.8c-.2-.1-.3-.2-.4-.4-.3.3-.6.4-.8.4-.6 0-.9-.3-.9-.8 0-.3.1-.6.4-.7.3-.2.8-.3 1.1-.3h.2v-.2-.1c0-.1 0-.2-.1-.3s-.3-.1-.4-.1c-.2 0-.4.1-.5.1-.1.1-.3.1-.4.2l-.2-.3c.2-.1.4-.2.5-.3.2-.1.4-.1.6-.1.5 0 .7.3.8.4s.1.3.1.5v.1.9.2c0 .2 0 .4.2.5zm-.4-1.5c-.1 0-.2 0-.2 0-.3 0-.6 0-.8.2-.2.1-.2.3-.2.5s.1.3.1.4c.1.1.2.1.4.1.3 0 .5-.1.7-.4z"/><path d="m-293.3-77.7v.4c.2-.3.5-.4.8-.4.4 0 .7.2.7.4.2.3.3.6.3 1.1 0 .3 0 .6-.2 1-.1.2-.4.5-.9.5-.2 0-.5-.1-.8-.3v1.3l-.4.1v-3.3c0-.3 0-.4-.1-.6zm.1 2.2c.1.2.4.4.7.4s.5-.1.6-.3.1-.6.1-.7c0-.5-.1-.7-.1-.8-.1-.1-.2-.3-.5-.3s-.6.1-.7.4v1.3z"/><path d="m-288.6-77.4c.2.3.3.7.3 1.1 0 .5-.1.8-.3 1.1s-.6.4-.9.4-.7-.1-.9-.4c-.2-.2-.3-.6-.3-1.1 0-.4.1-.8.3-1.1s.6-.4.9-.4.7.2.9.4zm-1.5.4c0 .1-.1.3-.1.8s.1.7.1.8c.1.1.2.4.6.4.3 0 .5-.2.6-.4 0-.1.1-.3.1-.8s-.1-.7-.1-.8c-.1-.1-.2-.4-.6-.4s-.5.2-.6.4z"/><path d="m-285.6-76.5c.1 0 .2 0 .3-.1 0 0 .1-.1.1-.3l.1-.4c0-.1.1-.2.1-.3s.1-.1.3-.1h.2l.1.3h-.2s-.1 0-.1.1c-.1 0-.1.1-.1.2l-.1.4c0 .1 0 .2-.1.3s-.1.1-.2.1c.1 0 .1.1.2.1.1.1.1.2.2.3l.1.5c0 .1.1.1.1.2 0 0 .1 0 .2.1h.1l-.1.3h-.3c-.1 0-.3 0-.4-.2-.1-.1-.1-.2-.1-.4l-.1-.4c0-.1 0-.2-.1-.3s-.2-.1-.3-.1h-.2v1.3h-.4v-1.3h-.2c-.1 0-.2 0-.3.1s-.1.2-.1.3l-.1.4c0 .2-.1.3-.1.4-.1.1-.3.2-.4.2h-.3l-.1-.3h.1c.1 0 .1 0 .2-.1.1 0 .1-.1.1-.2l.1-.5c0-.1.1-.2.2-.3 0 0 .1-.1.2-.1-.1 0-.2-.1-.2-.1-.1-.1-.1-.2-.1-.3l-.1-.4s0-.1-.1-.2c0 0-.1-.1-.1-.1h-.2l.1-.3h.2c.2 0 .3.1.3.1.1.1.1.2.1.3l.1.4c0 .2.1.2.1.3.1.1.1.1.3.1h.3v-1.1l.4-.1v1.2z"/><path d="m-281.6-74.1h-.4v-.8h-1.7v.8h-.4v-1.1h.2c.3-.6.5-1.2.5-1.9v-.5h1.6v2.5h.3v1zm-1.5-3.2v.4c0 .5-.1 1.1-.4 1.7h1.2v-2.1z"/><path d="m-280.6-76.2c0 .2 0 .5.1.7s.4.3.7.3c.2 0 .4 0 .7-.3l.2.3c-.3.2-.6.4-.9.4-.5 0-.8-.2-.9-.4-.3-.3-.3-.7-.3-1.1 0-.3 0-.7.3-1 .2-.2.4-.4.9-.4.3 0 .6.1.8.3s.2.4.2.4c0 .2.1.4.1.8v.1h-1.9zm1.3-.3c0-.2 0-.5-.1-.6s-.3-.2-.5-.2-.4.1-.5.3-.2.4-.1.6h1.2z"/><path d="m-277.7-74.9h-.4v-2.8l.4-.1v1.2h1.2v-1.1l.4-.1v2.9h-.4v-1.3h-1.2z"/><path d="m-275.1-77.7.4-.1v1.7.6c.1-.2.2-.4.3-.6l1-1.7.4-.1v2.9h-.4v-1.7-.6c-.1.2-.2.4-.3.6l-1 1.7h-.4z"/><path d="m-270.2-77.7v2.8h-.4v-1.2h-.4c-.1 0-.2 0-.3.1s-.1.2-.2.3l-.1.4c0 .1-.1.3-.2.3-.1.1-.2.1-.4.2h-.2l-.1-.3h.1s.1-.1.2-.1c.1-.1.1-.1.1-.2l.2-.4s.1-.2.1-.3c0 0 .1-.1.2-.1-.1 0-.3-.1-.4-.2s-.2-.3-.2-.4c0-.2 0-.4.3-.6.2-.2.5-.2.7-.2h1zm-.4.4h-.5c-.2 0-.3 0-.4.1s-.1.2-.1.3 0 .3.1.3c.1.1.3.1.5.1h.4z"/><path d="m-305.1-20.7c-.3.2-.6.2-.8.2-.4 0-.7-.2-.8-.4-.2-.3-.3-.6-.3-1.1s.2-.9.4-1.1c.3-.3.6-.4.8-.4s.4 0 .7.2l-.2.2c-.2-.2-.4-.2-.5-.2-.3 0-.5.1-.7.5-.1.2-.1.5-.1.8 0 .2 0 .4.1.6s.3.5.8.5c.1 0 .3 0 .6-.2z"/><path d="m-303.2-22.4c.2.2.2.5.2.8s-.1.6-.2.8c-.2.2-.4.3-.7.3s-.5-.1-.7-.3-.2-.5-.2-.8.1-.6.2-.8c.2-.2.4-.3.7-.3s.6.1.7.3zm-1.1.3c0 .1-.1.2-.1.6s.1.5.1.6c.1.1.2.3.4.3.3 0 .4-.2.4-.3s.1-.2.1-.6-.1-.5-.1-.6c-.1-.1-.2-.3-.4-.3s-.3.2-.4.3z"/><path d="m-302-20.5h-.3v-2.1h1.2v.3h-.8v1.8z"/><path d="m-299.6-22.6v2.1h-.3v-1.8h-.5v.3c0 .1 0 .5-.1.6 0 .1 0 .3-.1.4 0 .2-.1.3-.2.4s-.3.1-.3.1h-.1l-.1-.2h.1s.1 0 .1-.1c.1-.1.2-.2.2-.6.1-.6.1-.6.1-.8v-.5h1.2z"/><path d="m-297.5-20.5c-.1 0-.2-.2-.3-.3-.2.2-.4.3-.6.3-.4 0-.7-.2-.7-.6 0-.2.1-.4.3-.6s.6-.2.8-.2h.1v-.1c0-.1 0-.2-.1-.3s-.2-.1-.3-.1-.3 0-.4.1c-.1 0-.2.1-.3.2l-.2-.2c.1-.1.3-.2.4-.2s.3-.1.5-.1c.4 0 .5.2.6.3v.4.1.7.2c0 .2 0 .3.2.4zm-.3-1.1c-.1 0-.1 0-.2 0-.2 0-.5 0-.6.2-.1.1-.1.3-.1.3 0 .2 0 .2.1.3s.2.1.3.1c.2 0 .4-.1.5-.3z"/><path d="m-295.3-20.8c-.1.1-.2.2-.3.2s-.2.1-.4.1c-.3 0-.5-.1-.7-.3-.1-.2-.2-.4-.2-.7 0-.5.1-.7.3-.9s.4-.2.6-.2c.1 0 .4 0 .6.2l-.2.2c-.2-.2-.3-.2-.4-.2s-.2 0-.4.2c-.1.1-.2.4-.2.7 0 .2 0 .4.1.6s.3.2.4.2.2 0 .3-.1c.1 0 .1-.1.1-.1z"/><path d="m-294.9-22.6.3-.1v1.3.5c.1-.2.1-.3.2-.4l.8-1.3h.3v2.1h-.3v-1.2-.4c-.1.2-.1.3-.2.4l-.8 1.3h-.3z"/><path d="m-292.3-21.5c0 .2 0 .3.1.5s.3.3.5.3c.1 0 .3 0 .5-.2l.1.2c-.2.2-.4.3-.7.3-.4 0-.6-.2-.7-.3-.2-.2-.2-.5-.2-.8 0-.2 0-.5.2-.7.1-.2.3-.3.7-.3.3 0 .5.1.6.2s.2.3.2.3c0 .1.1.3.1.6h-1.4zm1-.3c0-.1 0-.3-.1-.5-.1-.1-.2-.2-.4-.2s-.3.1-.4.2-.1.3-.1.4h1z"/><path d="m-289.1-20.5h-.3v-2.1l.3-.1v.9h.9v-.8l.3-.1v2.1h-.3v-1h-.9z"/><path d="m-285.8-20.5c-.1 0-.2-.2-.3-.3-.2.2-.4.3-.6.3-.4 0-.7-.2-.7-.6 0-.2.1-.4.3-.6s.6-.2.8-.2h.1v-.1c0-.1 0-.2-.1-.3s-.2-.1-.3-.1-.3 0-.4.1c-.1 0-.2.1-.3.2l-.2-.2c.1-.1.3-.2.4-.2s.3-.1.5-.1c.4 0 .5.2.6.3v.4.1.7.2c0 .2 0 .3.2.4zm-.3-1.1c-.1 0-.1 0-.2 0-.2 0-.5 0-.6.2-.1.1-.1.3-.1.3 0 .2 0 .2.1.3s.2.1.3.1c.2 0 .4-.1.5-.3z"/><path d="m-282.6-22.4c.2.2.2.5.2.8s-.1.6-.2.8c-.2.2-.4.3-.7.3s-.5-.1-.7-.3-.2-.5-.2-.8.1-.6.2-.8c.2-.2.4-.3.7-.3s.5.1.7.3zm-1.1.3c0 .1-.1.2-.1.6s.1.5.1.6c.1.1.2.3.4.3.3 0 .4-.2.4-.3s.1-.2.1-.6-.1-.5-.1-.6c-.1-.1-.2-.3-.4-.3s-.4.2-.4.3z"/><path d="m-280.1-23.5c-.2.1-.3.2-.4.2l-.6.3c-.1.1-.2.1-.3.3-.1.1-.1.2-.1.4v.1c0-.1.1-.2.2-.2.1-.1.3-.1.4-.1.3 0 .5.1.6.3.2.2.2.5.2.8s-.1.6-.2.8-.4.3-.7.3-.5-.1-.7-.3c-.2-.3-.2-.7-.2-.9 0-.5 0-.8.1-1.1.1-.2.3-.5.6-.6l.6-.3.3-.1zm-1.3 1.4c0 .1-.1.2-.1.5s0 .5.1.5c.1.1.2.3.4.3s.4-.1.4-.3c0-.1.1-.2.1-.5s-.1-.5-.1-.5c-.1-.1-.2-.3-.4-.3s-.4.2-.4.3z"/><path d="m-279.2-22.7v.3c.2-.2.4-.3.6-.3.3 0 .5.2.6.3.2.2.2.5.2.8 0 .2 0 .5-.2.7-.1.2-.3.4-.6.4-.2 0-.4-.1-.6-.2v1l-.3.1v-2.5c0-.2 0-.3 0-.4zm.1 1.7c.1.1.3.3.5.3s.4-.1.4-.3c.1-.2.1-.4.1-.5 0-.3 0-.5-.1-.6 0-.1-.1-.2-.4-.2-.2 0-.4.1-.6.3v1z"/><path d="m-275.8-20.5c-.1 0-.2-.2-.3-.3-.2.2-.4.3-.6.3-.4 0-.7-.2-.7-.6 0-.2.1-.4.3-.6s.6-.2.8-.2h.1v-.1c0-.1 0-.2-.1-.3s-.2-.1-.3-.1-.3 0-.4.1c-.1 0-.2.1-.3.2l-.2-.2c.1-.1.3-.2.4-.2s.3-.1.5-.1c.4 0 .5.2.6.3v.4.1.7.2c0 .2 0 .3.2.4zm-.3-1.1c-.1 0-.1 0-.2 0-.2 0-.5 0-.6.2-.1.1-.1.3-.1.3 0 .2 0 .2.1.3s.2.1.3.1c.2 0 .4-.1.5-.3z"/><path d="m-273.4-23.5c-.2.1-.3.2-.4.2l-.6.3c-.1.1-.2.1-.3.3-.1.1-.1.2-.1.4v.1c0-.1.1-.2.2-.2.1-.1.3-.1.4-.1.3 0 .5.1.6.3.2.2.2.5.2.8s-.1.6-.2.8-.4.3-.7.3-.5-.1-.7-.3c-.2-.3-.2-.7-.2-.9 0-.5 0-.8.1-1.1.1-.2.3-.5.6-.6l.6-.3.3-.1zm-1.3 1.4c0 .1-.1.2-.1.5s0 .5.1.5c.1.1.2.3.4.3s.4-.1.4-.3c0-.1.1-.2.1-.5s-.1-.5-.1-.5c-.1-.1-.2-.3-.4-.3s-.3.2-.4.3z"/><path d="m-271.3-22.4c.2.2.2.5.2.8s-.1.6-.2.8c-.2.2-.4.3-.7.3s-.5-.1-.7-.3-.2-.5-.2-.8.1-.6.2-.8c.2-.2.4-.3.7-.3s.6.1.7.3zm-1.1.3c0 .1-.1.2-.1.6s.1.5.1.6c.1.1.2.3.4.3.3 0 .4-.2.4-.3s.1-.2.1-.6-.1-.5-.1-.6c-.1-.1-.2-.3-.4-.3s-.3.2-.4.3z"/><path d="m-270-20.5h-.3v-1.8h-.6v-.3h1.6v.3h-.6v1.8z"/><path d="m-269-22.6.3-.1v.9h.4c.1 0 .1 0 .2-.1 0 0 .1-.1.1-.2l.1-.3c0-.1 0-.2.1-.2 0 0 .1-.1.3-.1h.2l.1.2h-.1-.1s-.1.1-.1.1l-.1.3c0 .1 0 .1-.1.2 0 0-.1.1-.2.1.1 0 .1.1.1.1.1.1.1.1.1.2l.1.4s0 .1.1.1h.1.1l-.1.2h-.2c-.1 0-.2 0-.3-.1s-.1-.2-.1-.3l-.1-.3c0-.1 0-.1-.1-.2s-.1-.1-.2-.1h-.3v1h-.3z"/><path d="m-266.6-21.3c.1.2.1.4.1.5.1-.2.1-.3.1-.4l.4-1.4h.4l-.7 2.2c-.1.2-.1.4-.2.5s-.2.2-.4.3h-.1l-.1-.2c.1 0 .2-.1.3-.2 0-.1.1-.2.2-.4v-.1h-.1c-.1-.2-.2-.6-.2-.8l-.4-1.3.3-.1z"/><path d="m-263.9-20.5h-.3v-2.1h1.5v2.1h-.3v-1.8h-.9z"/><path d="m-261.7-21.5c0 .2 0 .3.1.5s.3.3.5.3c.1 0 .3 0 .5-.2l.1.2c-.2.2-.4.3-.7.3-.4 0-.6-.2-.7-.3-.2-.2-.2-.5-.2-.8 0-.2 0-.5.2-.7.1-.2.3-.3.7-.3.3 0 .5.1.6.2s.2.3.2.3c0 .1.1.3.1.6h-1.4zm1-.3c0-.1 0-.3-.1-.5-.1-.1-.2-.2-.4-.2s-.3.1-.4.2-.1.3-.1.4h1z"/><path d="m-259.5-22.7v.3c.2-.2.4-.3.6-.3.3 0 .5.2.6.3.2.2.2.5.2.8 0 .2 0 .5-.2.7-.1.2-.3.4-.6.4-.2 0-.4-.1-.6-.2v1l-.3.1v-2.5c0-.2 0-.3 0-.4zm0 1.7c.1.1.3.3.5.3s.4-.1.4-.3c.1-.2.1-.4.1-.5 0-.3 0-.5-.1-.6 0-.1-.1-.2-.4-.2-.2 0-.4.1-.6.3v1z"/><path d="m-256.1-20.8c-.1.1-.2.2-.3.2s-.2.1-.4.1c-.3 0-.5-.1-.7-.3-.1-.2-.2-.4-.2-.7 0-.5.1-.7.3-.9s.4-.2.6-.2c.1 0 .4 0 .6.2l-.2.2c-.2-.2-.3-.2-.4-.2s-.2 0-.4.2c-.1.1-.2.4-.2.7 0 .2 0 .4.1.6s.3.2.4.2.2 0 .3-.1c.1 0 .1-.1.1-.1z"/><path d="m-254.1-22.4c.2.2.2.5.2.8s-.1.6-.2.8c-.2.2-.4.3-.7.3s-.5-.1-.7-.3-.2-.5-.2-.8.1-.6.2-.8c.2-.2.4-.3.7-.3s.5.1.7.3zm-1.1.3c0 .1-.1.2-.1.6s.1.5.1.6c.1.1.2.3.4.3.3 0 .4-.2.4-.3s.1-.2.1-.6-.1-.5-.1-.6c-.1-.1-.2-.3-.4-.3s-.4.2-.4.3z"/><path d="m-253-20.5h-.3v-2.1l.3-.1v.9h.9v-.8l.3-.1v2.1h-.3v-1h-.9z"/><path d="m-249.6-20.5c-.1 0-.2-.2-.3-.3-.2.2-.4.3-.6.3-.4 0-.7-.2-.7-.6 0-.2.1-.4.3-.6s.6-.2.8-.2h.1v-.1c0-.1 0-.2-.1-.3s-.2-.1-.3-.1-.3 0-.4.1c-.1 0-.2.1-.3.2l-.2-.2c.1-.1.3-.2.4-.2s.3-.1.5-.1c.4 0 .5.2.6.3v.4.1.7.2c0 .2 0 .3.2.4zm-.3-1.1c-.1 0-.1 0-.2 0-.2 0-.5 0-.6.2-.1.1-.1.3-.1.3 0 .2 0 .2.1.3s.2.1.3.1c.2 0 .4-.1.5-.3z"/><path d="m-247.5-22.6v2.1h-.3v-1.8h-.5v.3c0 .1 0 .5-.1.6 0 .1 0 .3-.1.4 0 .2-.1.3-.2.4s-.3.1-.3.1h-.1l-.1-.2h.1c.1 0 .1 0 .1-.1.1-.1.2-.2.2-.6.1-.6.1-.6.1-.8v-.5h1.2z"/><path d="m-246.5-21.8h.3c.2 0 .5 0 .7.2.1.1.2.3.2.5s0 .3-.2.5c-.2.1-.3.2-.5.2h-.8v-2.1l.3-.1zm0 1h.4c.2 0 .3-.1.3-.1.1-.1.1-.2.1-.3s0-.2-.1-.3-.2-.1-.4-.1h-.4v.8z"/><path d="m-244.5-20.5h-.3v-2.1l.3-.1v.9h.9v-.8l.3-.1v2.1h-.3v-1h-.9z"/><path d="m-242.3-21.8h.3c.2 0 .4 0 .6.2.2.1.2.3.2.5s0 .3-.2.5c-.2.1-.4.2-.5.2h-.8v-2.1l.3-.1v.8zm0 1h.4c.2 0 .3-.1.3-.1.1 0 .1-.1.1-.3s-.1-.2-.1-.3c-.1-.1-.3-.1-.4-.1h-.3zm1.8-1.9v2.1h-.3v-2.1z"/><path d="m-238.6-20.5-.6-.9-.6.9h-.4l.8-1.2-.6-.9h.4l.4.7.4-.7h.4l-.6.9.8 1.2z"/><path d="m-235.2-19.9h-.3v-.6h-1.3v.6h-.3v-.9h.2c.2-.4.3-.9.4-1.5v-.4h1.2v1.8h.3v1zm-1.2-2.5v.3c0 .4-.1.8-.3 1.3h.9v-1.6z"/><path d="m-233.3-20.5c-.1 0-.2-.2-.3-.3-.2.2-.4.3-.6.3-.4 0-.7-.2-.7-.6 0-.2.1-.4.3-.6s.6-.2.8-.2h.1v-.1c0-.1 0-.2-.1-.3s-.2-.1-.3-.1-.3 0-.4.1c-.1 0-.2.1-.3.2l-.2-.2c.1-.1.3-.2.4-.2s.3-.1.5-.1c.4 0 .5.2.6.3v.4.1.7.2c0 .2 0 .3.2.4zm-.4-1.1c-.1 0-.1 0-.2 0-.2 0-.5 0-.6.2-.1.1-.1.3-.1.3 0 .2 0 .2.1.3s.2.1.3.1c.2 0 .4-.1.5-.3z"/><path d="m-232.3-20.5h-.3v-2.1l.3-.1v.9h.9v-.8l.3-.1v2.1h-.3v-1h-.9z"/><path d="m-230-20.5h-.3v-2.1l.3-.1v.9h.9v-.8l.3-.1v2.1h-.3v-1h-.9z"/><path d="m-227.8-21.8h.3c.2 0 .4 0 .6.2.2.1.2.3.2.5s0 .3-.2.5c-.2.1-.4.2-.5.2h-.8v-2.1l.3-.1v.8zm0 1h.4c.2 0 .3-.1.3-.1.1 0 .1-.1.1-.3s-.1-.2-.1-.3c-.1-.1-.3-.1-.4-.1h-.3zm1.8-1.9v2.1h-.3v-2.1z"/><path d="m-224.2-20.5-.6-.9-.6.9h-.4l.8-1.2-.6-.9h.4l.4.7.4-.7h.4l-.6.9.8 1.2z"/><path d="m-307.3-20v-.2h83.6v.2z"/><path d="m-290.4-164c.1.2.3.5.3 1.1s-.2.9-.3 1.1c-.2.3-.6.4-.8.4s-.6-.1-.8-.4c-.1-.2-.3-.5-.3-1.1s.2-.9.3-1.1c.2-.3.6-.4.8-.4s.5.1.8.4zm-1.4.2c-.1.1-.2.4-.2.9s.1.8.2.9c.1.2.3.3.6.3s.5-.1.6-.3c.1-.1.2-.4.2-.9s-.1-.8-.2-.9c-.1-.2-.3-.3-.6-.3s-.5.1-.6.3z"/><path d="m-288.2-161.5h-.3v-2.1h1.5v2.1h-.3v-1.8h-.9z"/><path d="m-286-163.6v.3c.2-.2.4-.3.6-.3.3 0 .5.2.6.3.2.2.2.5.2.8 0 .2 0 .5-.2.7-.1.2-.3.4-.6.4-.2 0-.4-.1-.6-.2v1l-.3.1v-2.5c0-.2 0-.3 0-.4zm0 1.7c.1.1.3.3.5.3s.4-.1.4-.3c.1-.2.1-.4.1-.5 0-.3 0-.5-.1-.6 0-.1-.1-.2-.4-.2-.2 0-.4.1-.6.3v1z"/><path d="m-282.5-163.3c.2.2.2.5.2.8s-.1.6-.2.8c-.2.2-.4.3-.7.3s-.5-.1-.7-.3-.2-.5-.2-.8.1-.6.2-.8c.2-.2.4-.3.7-.3s.5.1.7.3zm-1.1.2c0 .1-.1.2-.1.6s.1.5.1.6c.1.1.2.3.4.3.3 0 .4-.2.4-.3s.1-.2.1-.6-.1-.5-.1-.6c-.1-.1-.2-.3-.4-.3-.2.1-.4.2-.4.3z"/><path d="m-281.4-162.4c0 .2 0 .3.1.5s.3.3.5.3c.1 0 .3 0 .5-.2l.1.2c-.2.2-.4.3-.7.3-.4 0-.6-.2-.7-.3-.2-.2-.2-.5-.2-.8 0-.2 0-.5.2-.7.1-.2.3-.3.7-.3.3 0 .5.1.6.2s.2.3.2.3c0 .1.1.3.1.6h-1.4zm.9-.3c0-.1 0-.3-.1-.5-.1-.1-.2-.2-.4-.2s-.3.1-.4.2-.1.3-.1.4h1z"/><path d="m-279.6-163.5.3-.1v.9h.4c.1 0 .1 0 .2-.1 0 0 .1-.1.1-.2l.1-.3c0-.1 0-.2.1-.2 0 0 .1-.1.3-.1h.2l.1.2h-.1-.1s-.1.1-.1.1l-.1.3c0 .1 0 .1-.1.2 0 0-.1.1-.2.1.1 0 .1.1.1.1.1.1.1.1.1.2l.1.4s0 .1.1.1h.1.1l-.1.2h-.2c-.1 0-.2 0-.3-.1s-.1-.2-.1-.3l-.1-.3c0-.1 0-.1-.1-.2s-.1-.1-.2-.1h-.3v1h-.3z"/><path d="m-276.9-161.5h-.3v-1.8h-.6v-.3h1.6v.3h-.6v1.8z"/><path d="m-275.8-162.4c0 .2 0 .3.1.5s.3.3.5.3c.1 0 .3 0 .5-.2l.1.2c-.2.2-.4.3-.7.3-.4 0-.6-.2-.7-.3-.2-.2-.2-.5-.2-.8 0-.2 0-.5.2-.7.1-.2.3-.3.7-.3.3 0 .5.1.6.2s.2.3.2.3c0 .1.1.3.1.6h-1.4zm1-.3c0-.1 0-.3-.1-.5-.1-.1-.2-.2-.4-.2s-.3.1-.4.2-.1.3-.1.4h1z"/><path d="m-272.4-161.6-.6-.9.6-.9.2.2-.5.7.5.7zm.7 0-.6-.9.6-.9.2.2-.5.7.5.7z"/><path d="m-269.5-161.5v-1.3c-.2.1-.4.1-.7.1-.1 0-.4 0-.6-.2-.1-.1-.2-.3-.2-.5v-1h.3v1c0 .1 0 .3.1.4s.3.1.4.1c.2 0 .4 0 .6-.1v-1.3h.3v2.9h-.2z"/><path d="m-268.1-162.4c0 .2 0 .3.1.5s.3.3.5.3c.1 0 .3 0 .5-.2l.1.2c-.2.2-.4.3-.7.3-.4 0-.6-.2-.7-.3-.2-.2-.2-.5-.2-.8 0-.2 0-.5.2-.7.1-.2.3-.3.7-.3.3 0 .5.1.6.2s.2.3.2.3c0 .1.1.3.1.6h-1.4zm1-.3c0-.1 0-.3-.1-.5-.1-.1-.2-.2-.4-.2s-.3.1-.4.2-.1.3-.1.4h1z"/><path d="m-264.8-161.7c-.1.1-.2.2-.3.2s-.2.1-.4.1c-.3 0-.5-.1-.7-.3-.1-.2-.2-.4-.2-.7 0-.5.1-.7.3-.9s.4-.2.6-.2c.1 0 .4 0 .6.2l-.2.2c-.2-.2-.3-.2-.4-.2s-.2 0-.4.2c-.1.1-.2.4-.2.7 0 .2 0 .4.1.6s.3.2.4.2.2 0 .3-.1c.1 0 .1-.1.1-.1z"/><path d="m-263.8-161.5h-.3v-1.8h-.6v-.3h1.6v.3h-.6v1.8z"/><path d="m-262.6-161.5h-.3v-2.1l.3-.1v.9h.9v-.8l.3-.1v2.1h-.3v-1h-.9z"/><path d="m-259.2-163.3c.2.2.2.5.2.8s-.1.6-.2.8c-.2.2-.4.3-.7.3s-.5-.1-.7-.3-.2-.5-.2-.8.1-.6.2-.8c.2-.2.4-.3.7-.3s.5.1.7.3zm-1.1.2c0 .1-.1.2-.1.6s.1.5.1.6c.1.1.2.3.4.3.3 0 .4-.2.4-.3s.1-.2.1-.6-.1-.5-.1-.6c-.1-.1-.2-.3-.4-.3-.2.1-.3.2-.4.3z"/><path d="m-258.1-162.4c0 .2 0 .3.1.5s.3.3.5.3c.1 0 .3 0 .5-.2l.1.2c-.2.2-.4.3-.7.3-.4 0-.6-.2-.7-.3-.2-.2-.2-.5-.2-.8 0-.2 0-.5.2-.7.1-.2.3-.3.7-.3.3 0 .5.1.6.2s.2.3.2.3c0 .1.1.3.1.6h-1.4zm1-.3c0-.1 0-.3-.1-.5-.1-.1-.2-.2-.4-.2s-.3.1-.4.2-.1.3-.1.4h1z"/><path d="m-254.9-161.5h-.3v-2.1h1.2v.3h-.8v1.8z"/><path d="m-252.4-163.3c.2.2.2.5.2.8s-.1.6-.2.8c-.2.2-.4.3-.7.3s-.5-.1-.7-.3-.2-.5-.2-.8.1-.6.2-.8c.2-.2.4-.3.7-.3s.5.1.7.3zm-1.1.2c0 .1-.1.2-.1.6s.1.5.1.6c.1.1.2.3.4.3.3 0 .4-.2.4-.3s.1-.2.1-.6-.1-.5-.1-.6c-.1-.1-.2-.3-.4-.3-.2.1-.3.2-.4.3z"/><path d="m-250.3-163.5v2.1h-.3v-1.8h-.5v.3c0 .1 0 .5-.1.6 0 .1 0 .3-.1.4 0 .2-.1.3-.2.4s-.3.1-.3.1h-.1l-.1-.2h.1s.1 0 .1-.1c.1-.1.2-.2.2-.6.1-.6.1-.6.1-.8v-.5h1.2z"/><path d="m-248.1-163.3c.2.2.2.5.2.8s-.1.6-.2.8c-.2.2-.4.3-.7.3s-.5-.1-.7-.3-.2-.5-.2-.8.1-.6.2-.8c.2-.2.4-.3.7-.3s.5.1.7.3zm-1.1.2c0 .1-.1.2-.1.6s.1.5.1.6c.1.1.2.3.4.3.3 0 .4-.2.4-.3s.1-.2.1-.6-.1-.5-.1-.6c-.1-.1-.2-.3-.4-.3-.3.1-.4.2-.4.3z"/><path d="m-245.9-161.7c-.1.1-.2.2-.3.2s-.2.1-.4.1c-.3 0-.5-.1-.7-.3-.1-.2-.2-.4-.2-.7 0-.5.1-.7.3-.9s.4-.2.6-.2c.1 0 .4 0 .6.2l-.2.2c-.2-.2-.3-.2-.4-.2s-.2 0-.4.2c-.1.1-.2.4-.2.7 0 .2 0 .4.1.6s.3.2.4.2.2 0 .3-.1c.1 0 .1-.1.1-.1z"/><path d="m-243.9-163.3c.2.2.2.5.2.8s-.1.6-.2.8c-.2.2-.4.3-.7.3s-.5-.1-.7-.3-.2-.5-.2-.8.1-.6.2-.8c.2-.2.4-.3.7-.3s.5.1.7.3zm-1.1.2c0 .1-.1.2-.1.6s.1.5.1.6c.1.1.2.3.4.3.3 0 .4-.2.4-.3s.1-.2.1-.6-.1-.5-.1-.6c-.1-.1-.2-.3-.4-.3-.3.1-.4.2-.4.3z"/><path d="m-242.3-163.5c.1 0 .3 0 .4.1.2.1.2.3.2.4s0 .2-.1.3c0 0-.1.1-.2.1.1 0 .2.1.3.2s.1.2.1.4-.1.4-.2.4c-.2.2-.4.2-.5.2h-.8v-2.1zm-.5.8h.5c.1 0 .2 0 .3-.1 0 0 .1-.1.1-.2s-.1-.2-.1-.2c-.1 0-.1-.1-.2-.1h-.5v.6zm0 1h.5c.2 0 .2 0 .3-.1 0 0 .1-.1.1-.3 0-.1 0-.2-.1-.3-.1 0-.2-.1-.3-.1h-.5z"/><path d="m-239.5-161.4c-.1 0-.2-.2-.3-.3-.2.2-.4.3-.6.3-.4 0-.7-.2-.7-.6 0-.2.1-.4.3-.6s.6-.2.8-.2h.1v-.1-.1c0-.1 0-.2-.1-.3s-.2-.1-.3-.1-.3 0-.4.1c-.1 0-.2.1-.3.2l-.2-.2c.1-.1.3-.2.4-.2s.3-.1.5-.1c.4 0 .5.2.6.3v.4.1.7.2c0 .2 0 .3.2.4zm-.4-1.1c-.1 0-.1 0-.2 0-.2 0-.5 0-.6.2-.1.1-.1.3-.1.3 0 .2 0 .2.1.3s.2.1.3.1c.2 0 .4-.1.5-.3z"/><path d="m-238.5-161.5h-.3v-2.1l.3-.1v.9h.9v-.8l.3-.1v2.1h-.3v-1h-.9z"/><path d="m-236.6-163.5.3-.1v1.3.5c.1-.2.1-.3.2-.4l.8-1.3h.3v2.1h-.3v-1.2-.4c-.1.2-.1.3-.2.4l-.8 1.3h-.3z"/><path d="m-234-162.4c0 .2 0 .3.1.5s.3.3.5.3c.1 0 .3 0 .5-.2l.1.2c-.2.2-.4.3-.7.3-.4 0-.6-.2-.7-.3-.2-.2-.2-.5-.2-.8 0-.2 0-.5.2-.7.1-.2.3-.3.7-.3.3 0 .5.1.6.2s.2.3.2.3c0 .1.1.3.1.6h-1.4zm1-.3c0-.1 0-.3-.1-.5-.1-.1-.2-.2-.4-.2s-.3.1-.4.2-.1.3-.1.4h1z"/><path d="m-232-161.6-.2-.2.5-.7-.5-.7.2-.2.6.9zm.8 0-.2-.2.5-.7-.5-.7.2-.2.6.9z"/><path d="m-292.7-160.9v-.2h62.3v.2z"/><path clip-path="url(#c)" d="m-294.9-160.7s-.1-.1-.3-.4c-.2-.5-.3-1.2-.3-1.7 0-.7-.4-1.2-1-1.5v-.4c0-.4-.3-.6-.6-.6h-.1c-.4 0-.6.3-.6.6v.4c-.6.3-1 .8-1 1.5 0 .5 0 1.2-.3 1.7-.1.3-.3.4-.3.4-.1 0-.1.1-.1.2s.1.1.2.1h1.2c0 .5.4.9.9.9s.9-.4.9-.9h1.2c.1 0 .2-.1.2-.1.1-.1.1-.2 0-.2zm-2.5-3.9c0-.2.1-.3.3-.3h.1c.2 0 .3.1.3.3v.3c-.1 0-.2 0-.3 0s-.2 0-.3 0v-.3zm.3 4.7c-.3 0-.5-.2-.5-.5h1.1c0 .3-.3.5-.6.5zm.7-.8h-2.4s.1-.1.1-.2c.2-.4.3-1.1.3-1.9 0-.7.6-1.3 1.3-1.3s1.3.6 1.3 1.3c0 .8.1 1.4.3 1.9 0 .1.1.1.1.2zm0 0"/></g><path d="m-293.2-74.7-.1.5h-1.6v1h.5c.3 0 .8 0 1.1.3s.3.6.3.9c0 .2 0 .5-.3.8s-.8.4-1.2.4h-1.2v-3.9zm-1.2 3.3c.3 0 .5-.1.5-.2.1-.1.2-.3.2-.5s-.1-.4-.2-.5c-.2-.1-.4-.2-.5-.2h-.5v1.3h.5z"/><path d="m-292.1-70.8v-3h1.9l-.1.5h-1.2v.7h1v.5h-1v.8h1.3v.5z"/><path d="m-289.3-72.2v-.4h.2c.3 0 .4 0 .5-.1.1 0 .2-.1.2-.3 0-.1 0-.2-.1-.3s-.3-.1-.4-.1-.2 0-.4.1c-.1 0-.2.1-.2.1l-.3-.4c.1-.1.3-.2.4-.2.2-.1.4-.1.6-.1.3 0 .6 0 .8.2s.3.4.3.6-.1.4-.2.5-.2.1-.3.2c.2 0 .3.1.4.2.2.2.2.3.2.5 0 .3-.1.5-.3.6-.3.2-.6.3-.9.3-.5 0-.8-.1-1-.3l.3-.4c.2.2.4.2.6.2s.3 0 .5-.1c.1-.1.2-.2.2-.3s0-.2-.2-.3c-.1-.1-.3-.1-.5-.1h-.4z"/><path d="m-285.5-70.8c-.9 0-1.5-.6-1.5-1.6s.5-1.6 1.4-1.6c1 0 1.4.6 1.4 1.6.1.9-.4 1.6-1.3 1.6zm-.1-2.7c-.6 0-.7.6-.7 1.1s.1 1.1.7 1.1.7-.6.7-1.1c.1-.5 0-1.1-.7-1.1z"/><path d="m-281.7-70.8v-2.5h-1v2.5h-.6v-3h2.2v3z"/><path d="m-278.3-70.8-.3-.7h-1l-.3.7h-.7l1.1-3h.7l1.1 3zm-.8-2.5-.4 1.3h.8z"/><path d="m-275.8-70.8c-.4 0-.8-.1-1-.4-.3-.3-.5-.7-.5-1.1s.1-.7.3-1c.3-.4.7-.7 1.3-.7.3 0 .7.1.9.2l-.3.4c-.2-.1-.4-.2-.5-.2-.3 0-.5.1-.6.3s-.2.4-.2.7c0 .4 0 .7.2.8.2.2.4.3.6.3s.4-.1.6-.2l.3.4c-.5.4-.8.5-1.1.5z"/><path d="m-272.6-70.8v-1.4h-1v1.4h-.6v-3h.6v1.2h1v-1.2h.6v3z"/><path d="m-269.2-70.8-.3-.7h-1l-.3.7h-.7l1.1-3h.7l1.1 3zm-.8-2.5-.4 1.3h.8z"/><path d="m-266.6-70.8v-1.2h-.2c-.2 0-.3 0-.3.1-.1.1-.2.2-.2.3l-.1.3c0 .2-.1.3-.2.4s-.3.1-.5.1h-.2l-.1-.4h.1c.1 0 .2-.1.2-.1.1-.1.1-.2.1-.3l.1-.2c0-.1.1-.2.2-.3s.1-.1.2-.1c-.2 0-.3-.1-.5-.2-.1-.1-.2-.3-.2-.5 0-.3.1-.5.2-.6.3-.3.7-.3 1-.3h1v3zm-.3-2.6c-.2 0-.4 0-.5.1-.1 0-.2.1-.2.3s.1.3.2.3c.1.1.4.1.5.1h.3v-.8z"/><path d="m-261.9-72.1c-.3.1-.4.2-.8.2h-.4v1.1h-.6v-3h.9c.6 0 .7.1.9.1.3.2.5.4.5.8 0 .3-.2.6-.5.8zm-.8-1.3h-.4v.9h.4c.3 0 .5-.1.5-.5.1-.3-.2-.4-.5-.4z"/><path d="m-260.7-70.8v-3h1.9l-.1.5h-1.2v.7h1v.5h-1v.8h1.3v.5z"/><path d="m-256.4-73.4h-1.1v2.5h-.6v-3h1.8z"/><path d="m-254-70.8v-1.5c0-.2 0-.5 0-.7-.1.3-.2.5-.3.7l-.9 1.6h-.6v-3h.6v1.5.8c.1-.2.2-.5.3-.8l.8-1.5h.6v3h-.5z"/><path d="m-251-70.8c-.4 0-.8-.1-1-.4-.3-.3-.5-.7-.5-1.1s.1-.7.3-1c.3-.4.7-.7 1.3-.7.3 0 .7.1.9.2l-.3.4c-.2-.1-.4-.2-.5-.2-.3 0-.5.1-.6.3s-.2.4-.2.7c0 .4 0 .7.2.8.2.2.4.3.6.3s.4-.1.6-.2l.3.4c-.4.4-.7.5-1.1.5z"/><path d="m-247.5-73.4h-.8v2.5h-.6v-2.5h-.8v-.5h2.4z"/><path d="m-245.1-72.1c-.3.1-.4.2-.8.2h-.4v1.1h-.6v-3h.9c.6 0 .7.1.9.1.3.2.5.4.5.8 0 .3-.2.6-.5.8zm-.8-1.3h-.4v.9h.4c.3 0 .5-.1.5-.5.1-.3-.2-.4-.5-.4z"/><path d="m-242.2-70.8-.3-.7h-1l-.3.7h-.7l1.1-3h.7l1.1 3zm-.8-2.5-.4 1.3h.8z"/><path d="m-240.4-73.9v2.5h1v-2.5h.6v2.5h.4v1.3h-.5v-.8h-2v-3z"/><path d="m-236.1-70.8v-1.5c0-.2 0-.5 0-.7-.1.3-.2.5-.3.7l-.9 1.6h-.6v-3h.6v1.5.8c.1-.2.2-.5.3-.8l.8-1.5h.6v3h-.5z"/><path d="m-233-70.8v-1.2h-.2c-.2 0-.3 0-.3.1-.1.1-.2.2-.2.3l-.1.3c0 .2-.1.3-.2.4s-.3.1-.5.1h-.2l-.1-.4h.1c.1 0 .2-.1.2-.1.1-.1.1-.2.1-.3l.1-.2c0-.1.1-.2.2-.3s.1-.1.2-.1c-.2 0-.3-.1-.5-.2-.1-.1-.2-.3-.2-.5 0-.3.1-.5.2-.6.3-.3.7-.3 1-.3h1v3zm-.3-2.6c-.2 0-.4 0-.5.1-.1 0-.2.1-.2.3s.1.3.2.3c.1.1.4.1.5.1h.3v-.8z"/></g><path d="m-307.3-69.8-2.9-2.8 2.9-2.7" style="fill:none;stroke:#fff;stroke-width:.75;stroke-linecap:round;stroke-linejoin:round;stroke-miterlimit:10"/></g></g><path d="m-222.6-63.4-.5-.5c1.3-1.3 3.6-1.3 4.9 0l-.5.5c-1.1-1-2.9-1-3.9 0z" fill="#fff" transform="translate(409 100)"/><path d="m-217.7-64.5c-.8-.8-1.9-1.3-3-1.3s-2.2.4-3 1.3l-.5-.5c1-1 2.2-1.5 3.6-1.5 1.3 0 2.6.5 3.6 1.5z" fill="#fff" transform="translate(409 100)"/><path d="m-219.6-62.6c-.3-.3-.7-.5-1.1-.5s-.8.2-1.1.5l1.1 1.1z" fill="#fff" transform="translate(409 100)"/><path d="m196.1 34.6h4.3v2.7h-4.3z" fill="#fff"/><path d="m203.4 35h.9v1.9h-.9z" fill="#fff"/><path d="m195.4 34h8v4h-8z" fill="none" stroke="#fff" stroke-miterlimit="10" stroke-width=".5"/><g fill="#fff" transform="translate(409 100)"><path d="m-293.5-62.3h-.5v-2.8h-.7v-.4l1.2-.1z"/><path d="m-290.1-62.3h-2.2v-.4l1.1-1.2c.2-.2.3-.3.4-.5.1-.1.1-.2.1-.4 0-.1 0-.3-.1-.4s-.2-.1-.3-.1c-.2 0-.3.1-.4.2s-.1.3-.1.4h-.5c0-.3.1-.5.3-.7s.5-.3.8-.3.6.1.7.3c.2.2.3.4.3.7 0 .2-.1.4-.2.5-.1.2-.3.4-.5.6l-.7.8h1.5v.5z"/><path d="m-289-64.3h-.5v-.5h.5zm0 2h-.5v-.5h.5z"/><path d="m-286.6-63.5h.4v.4h-.4v.7h-.5v-.7h-1.4v-.3l1.4-2.2h.6v2.1zm-1.4 0h.9v-1.3.1z"/><path d="m-285.7-63.8.2-1.8h1.7v.5h-1.3l-.1.8c.1 0 .1-.1.2-.1s.2 0 .3-.1c.3 0 .5.1.7.3s.3.5.3.8-.1.6-.3.8-.4.3-.8.3c-.3 0-.5-.1-.7-.2-.2-.2-.3-.4-.3-.7h.5c0 .2 0 .3.1.4s.2.1.4.1.3-.1.4-.2.1-.3.1-.5 0-.4-.1-.5-.2-.2-.4-.2-.3 0-.3.1c-.1 0-.1.1-.2.2z"/></g><path d="m104.5 37.1h1v1.1h-1z" fill="#fff"/><path d="m106.1 36h1v2.2h-1z" fill="#fff"/><path d="m107.6 34.9h1v3.3h-1z" fill="#fff"/><path d="m109 33.8h1v4.4h-1z" fill="#fff"/><path d="m140 36h28.8" fill="none" stroke="#131b2f" stroke-linecap="round" stroke-miterlimit="10" stroke-width="3"/><path d="m79.1 247.7v-4.7l-8.3-.1-.1 7h.5c2.3.1 11.7.4 13.2-.1 1.8-.3-5.3-2.1-5.3-2.1z" fill="#e9505b"/><path d="m84.7 249.6c0 .1-3.1.1-7 .1-3.8 0-7-.1-7-.1 0-.1 3.1-.1 7-.1 3.9-.1 7 0 7 .1z" fill="#263239"/><path d="m79.3 248.7c-.1 0 0-.3.2-.5s.4-.4.5-.3-.1.3-.2.5c-.3.2-.4.3-.5.3z" fill="#263239"/><path d="m79.8 249c-.1 0 0-.3.1-.6.2-.3.4-.5.4-.4.1 0 0 .3-.2.6-.1.2-.2.4-.3.4z" fill="#263239"/><path d="m73.3 249.5s-.2-.1-.3-.3c-.2-.2-.4-.5-.7-.7s-.7-.4-.9-.4c-.3 0-.4 0-.4 0s.1-.1.4-.2c.3 0 .7.1 1.1.4s.6.6.7.8c0 .3.1.4.1.4z" fill="#263239"/><path d="m79.3 247.8c0 .1-.1.2-.3.3s-.5.1-.5 0 .2-.2.4-.2c.2-.1.4-.1.4-.1z" fill="#263239"/><path d="m79.2 247.4c0 .1-.2.1-.5.1s-.5-.1-.5-.1c0-.1.2-.1.5-.1.3-.1.5 0 .5.1z" fill="#263239"/><path d="m99.7 247.7v-4.7l-8.3-.1-.1 7h.5c2.3.1 11.7.4 13.2 0 1.7-.4-5.3-2.2-5.3-2.2z" fill="#e9505b"/><path d="m105.2 249.6c0 .1-3.1.1-7 .1-3.8 0-7-.1-7-.1 0-.1 3.1-.1 7-.1 3.9-.1 7 0 7 .1z" fill="#263239"/><path d="m99.8 248.7c-.1 0 0-.3.2-.5s.4-.4.5-.3-.1.3-.2.5c-.3.2-.4.3-.5.3z" fill="#263239"/><path d="m100.3 249c-.1 0 0-.3.1-.6.2-.3.4-.5.4-.4.1 0 0 .3-.2.6 0 .2-.2.4-.3.4z" fill="#263239"/><path d="m93.8 249.5s-.2-.1-.3-.3c-.2-.2-.4-.5-.7-.7s-.6-.4-.9-.4-.4 0-.4 0 .1-.1.4-.2c.3 0 .7.1 1.1.4s.6.6.7.8c.1.3.1.4.1.4z" fill="#263239"/><path d="m99.8 247.8c0 .1-.1.2-.3.3s-.5.1-.5 0 .2-.2.4-.2c.2-.1.4-.1.4-.1z" fill="#263239"/><path d="m99.7 247.4c0 .1-.2.1-.5.1s-.5-.1-.5-.1c0-.1.2-.1.5-.1.3-.1.5 0 .5.1z" fill="#263239"/><path d="m130.4 109.7c-.2-.2-.8-.1-.8-.1s.1-.6 0-.9-.8-.2-.8-.2 0-.3 0-.8c0-.1-.1-.2-.2-.3-.3-.2-1-.2-1-.2-.4-.3 1.3-2.7 1.9-3.4.6-.8.5-1.4 0-1.4-.4 0-2.4 2.3-3 3.1s-2.2 2.9-2.3 1.2-.7-3-1.2-3.2c-.4-.2-.9.3-.7.8.2.4.3 1.1.4 1.7.1.5 0 .9-.1 1.4-.3 1.3-.6 2.1-.7 2.5s-11.9 11.4-12.7 12.2c-.8.7-16.2-.9-19.3-1.2-.8-.1-2.1-.3-3.2-.2-1.3.1-1.6.2-2.9.3-4.1.1-7.5.5-10.1.9-3.1.5-5.6 2.7-6.6 5.7-2.9 9.4-10 32.4-11.3 45.4-1 1.9-2.1 4-2.5 5.3-.9 2.4-.7 2.5-.4 2.5.8.1 1.7-4.1 2-3.1s-1.7 5.1-.9 5.2c1.1.2 2-4.3 2.1-4.7s.6-.2.5.1c-.2.5-1.7 5.6-.6 5.7.6.1.7-1 .7-1s1.1-4.9 1.6-4.8 0 3-.3 3.9c-.2.9.1 1.4.6 1.2.3-.2 1.2-3.1 1.4-4s.8-3.6 1.6-2c.8 1.5 1.9 2.4 2.4 2.4s.7-.6.3-1c-.3-.3-.8-.9-1.1-1.4-.2-.4-.4-.8-.5-1.3-.4-1.7-.4-2.8-.4-2.8l-.1-.6c1.2-6 4.7-23.7 9.8-35l2.1 4.3.9 3.2-5.5 13.7 23.6-.3-3.6-13.5 4.3-14.1c4.6.1 16.5.3 18.5-.6 2.5-1.1 15.4-17.4 15.4-17.4.9-.7 1.8-1.4 2.4-2.1 0 0 .8-.6.3-1.1z" fill="#f8bc9e"/><path d="m68.4 148.8c.7-2.3 4.2-13.9 4.2-13.9s1.7 9.4 1.3 10.6c-.5 1.3-1.5 2.8-1.5 2.8-4 6.1-3.5 9.1-3.5 9.1l24.1-.7c.1-3.4-1.9-11.2-2.4-12.5-.4-1.2 1-5.3 1-5.3s2.7-2.8 2.6-4.2c-.2-2.9-.5-3.8-.5-3.8l14.7.5-.5-10-21.1-2.1c-.7 2.1-7.4 1.1-7.4 1.1-7.2.2-7.6 1.6-10.6 3.9s-7.9 22.2-7.9 22.2z" fill="#e9505b"/><path d="m82.7 146.5s-.5.1-1.3.1-1.9-.1-3.1-.2-2.3-.3-3-.4c-.8-.2-1.2-.3-1.2-.3s.5 0 1.3.1 1.8.2 3 .4c1.2.1 2.3.2 3 .3.8-.1 1.3-.1 1.3 0z" fill="#263239"/><path d="m84.3 144.4s-.5.2-1.3.4-2 .5-3.3.6c-1.3.2-2.5.2-3.4.2s-1.4-.1-1.4-.1.5 0 1.4-.1c.9 0 2-.1 3.3-.2 1.3-.2 2.4-.4 3.3-.5.9-.2 1.4-.3 1.4-.3z" fill="#263239"/><path d="m92.4 135.3s0 .5-.2 1.2c-.1.8-.4 1.8-.6 2.9-.3 1.1-.6 2.2-.8 2.9s-.4 1.2-.4 1.2.1-.5.2-1.2c.2-.8.4-1.8.7-2.9s.5-2 .7-2.9c.2-.8.4-1.2.4-1.2z" fill="#263239"/><path d="m68.7 147.4c0 .1-1.7-.3-3.7-.9s-3.7-1.1-3.6-1.1c0-.1 1.7.3 3.7.9 1.9.5 3.6 1 3.6 1.1z" fill="#263239"/><path d="m94.1 130.7s-.2 0-.6 0-1-.1-1.7-.4-1.4-.7-2.2-1.3c-.7-.6-1.4-1.5-1.8-2.5s-.6-2.1-.5-3.1.3-1.8.7-2.4 1-.9 1.4-1c.2-.1.4-.1.5-.1h.2s-.2 0-.6.1-.9.4-1.2 1c-.7 1.2-.9 3.3-.2 5.3.4 1 1 1.8 1.7 2.5.7.6 1.4 1.1 2.1 1.3 1.3.6 2.2.6 2.2.6z" fill="#263239"/><path d="m106.7 131.2c-.1 0-.1-2.2-.1-5s.1-5 .2-5 .1 2.2.1 5-.1 5-.2 5z" fill="#263239"/><path d="m86.8 119.9c.1-1.2.2-2.6.2-2.6s3-.3 3.2-3.4 0-10.2 0-10.2l-5.5-2.8-6 4.7.9 15.5 5.5.4c.9 0 1.6-.6 1.7-1.6z" fill="#f8bc9e"/><path d="m87.3 111.5v.1c-.1.1-.2.2-.3.2-.3 0-.7-.4-.8-.9-.1-.2-.1-.5 0-.7 0-.2.2-.4.3-.5h.2c.1 0 .1.1.1.1v.1s0-.1-.1-.1c0-.1-.1-.1-.3-.1-.1.1-.2.2-.2.4v.6c.1.4.4.8.7.8.2.2.3.1.4 0z" fill="#ec9a6e"/><path d="m92 102c-.4-1.4-1.9-2.1-3.3-2.5-2.1-.6-4.4-.9-6.4-.1-2.1.8-4.5 2.1-4.5 4.4-1.2-.1-1.9 1-2.4 2.3-.3.8-.5 1.6-.5 2.5-.2 3-1 7.1-2.9 9.3-1.1 1.2-2.6 2.1-3.2 3.6-.5 1.3-.3 2.9-.8 4.2-.4 1.2-1.4 2-2.2 3-1.6 2.2-1.7 5.4-.5 7.8 1.1 2.5 3.4 4.3 5.9 5.1s5.3.7 7.8.1c1.9-.5 3.7-1.3 5.2-2.6s2.7-3.1 3-5.1c.4-2.2-.2-4.5-.7-6.7-1.4-7-1-7.3.8-13.8 0-.1.1-.2.1-.4 0-.1 0-.2.1-.3.1-.3.1-.5.1-.8-.5.2-1.2.1-1.6-.3s-.6-1.1-.4-1.6c.2-.6.8-1.1 1.4-1.3.6-.3 1.3-.4 1.8-.7 1.3-.6 2.1-1.8 2.7-3.1.5-1 .8-2 .5-3z" fill="#263239"/><path d="m87.5 111.6s.1.2.3.5.4.8.6 1.4v.1h-.1c-.2 0-.4 0-.6 0-.4 0-.7.1-1.1.1-.1 0-.1-.1-.1-.1 0-.1 0-.1 0-.2s0-.1.1-.2l.1-.4c.1-.5.2-.8.2-.8s0 .3-.1.8l-.1.4c0 .1-.1.3 0 .3.3 0 .7-.1 1-.1h.6l-.1.1c-.2-.6-.4-1.1-.6-1.4 0-.3-.1-.5-.1-.5z" fill="#e9505b"/><path d="m68.9 157.4 24.1-.7 10.5 41-1.9 47h-12.8l1.6-46-9.3-28.5 1.4 76.3-12.9.2-1.4-71.7c-.1-2-.7-6.5-.5-8.5z" fill="#263239"/><g fill="#455a64"><path d="m84.3 170.7s-.5 0-1.2-.1-1.7-.2-2.8-.5c-1.1-.2-2.1-.5-2.8-.7s-1.1-.4-1.1-.4c0-.1 1.8.3 3.9.8 2.2.5 4 .8 4 .9z"/><path d="m101.5 242c0 .1-2.9.1-6.5.1s-6.5-.1-6.5-.1c0-.1 2.9-.1 6.5-.1s6.5.1 6.5.1z"/><path d="m82.4 244.5c0 .1-2.8.1-6.3.1s-6.3-.1-6.3-.1c0-.1 2.8-.1 6.3-.1 3.5-.1 6.3 0 6.3.1z"/><path d="m80.7 244.3c-.1 0-.4-16.7-.8-37.2-.3-20.6-.6-37.3-.5-37.3s.4 16.7.8 37.3c.4 20.5.6 37.2.5 37.2z"/><path d="m99.8 242s0-.1 0-.2c0-.2 0-.4 0-.7 0-.6 0-1.4.1-2.5.1-2.2.2-5.3.3-9.2.3-7.8.7-18.5 1.2-30.4 0-.1 0-.2 0-.3-2.9-11.4-5.4-21.8-7.3-29.3-.9-3.7-1.7-6.8-2.2-8.9-.2-1-.4-1.8-.6-2.4-.1-.3-.1-.5-.1-.6s0-.2 0-.2 0 .1.1.2c0 .2.1.4.2.6.1.6.4 1.4.6 2.4.5 2.1 1.3 5.1 2.3 8.8 1.9 7.5 4.5 17.8 7.4 29.3v.3c-.5 11.9-.9 22.6-1.2 30.4-.2 3.9-.3 7-.4 9.2-.1 1.1-.1 1.9-.1 2.5v.7c-.3.3-.3.3-.3.3z"/><path d="m95.6 197.8c0 .1-1.2.4-2.8.6-1.2.2-2.2.3-2.6.4v-.1c.1 0 .2.1.2.1s-.1 0-.2 0h-.3l.3-.1c.4-.1 1.4-.3 2.6-.5 1.5-.3 2.8-.5 2.8-.4z"/><path d="m95.4 199.4c0 .1-1.1 0-2.5-.1s-2.5-.2-2.5-.3 1.1-.1 2.5 0c1.3.1 2.5.3 2.5.4z"/></g><path d="m68.8 158.3c.6.8 1.4 1.1 2.4 1.3s2 .1 2.9-.1c6.2-.7 12.8-1.3 18.9-2.8-7.9.4-16.2.3-24.1.7 0 0-.1.5-.1.7" fill="#010202" opacity=".2"/><path d="m76.9 169.4 4.5 17.2-.3-16.5z" fill="#010202" opacity=".2"/><circle cx="19.5" cy="19.2" fill="url(#d)" r="17"/><path d="m15.6 29.1v-2.5h3.7v-14c-1.7 1.1-3.6 1.8-5.4 2.6l-.7-1.7 6.8-4.7h2.4v17.8h3.7v2.5z" fill="#fff"/></svg>