<svg enable-background="new -49 141 512 512" viewBox="-49 141 512 512" xmlns="http://www.w3.org/2000/svg"><g fill="#ffdb4a"><path d="m207 653c141.152 0 256-114.848 256-256s-114.848-256-256-256-256 114.848-256 256 114.848 256 256 256zm0-480c123.52 0 224 100.48 224 224s-100.48 224-224 224-224-100.48-224-224 100.48-224 224-224z"/><path d="m127 525h16v16c0 8.832 7.168 16 16 16s16-7.168 16-16v-16h32v16c0 8.832 7.168 16 16 16s16-7.168 16-16v-16h8c39.712 0 72-32.288 72-72 0-26.656-14.72-49.664-36.256-62.144 12.48-12.928 20.256-30.464 20.256-49.856 0-36.96-28.096-67.168-64-71.2v-16.8c0-8.832-7.168-16-16-16s-16 7.168-16 16v16h-32v-16c0-8.832-7.168-16-16-16s-16 7.168-16 16v16h-16c-8.832 0-16 7.168-16 16v224c0 8.832 7.168 16 16 16zm120-32h-104v-80h88 16c22.048 0 40 17.952 40 40s-17.952 40-40 40zm-104-192h88c22.048 0 40 17.952 40 40s-17.952 40-40 40h-88z"/></g></svg>