<svg enable-background="new 0 0 136.7 136.8" viewBox="0 0 136.7 136.8" xmlns="http://www.w3.org/2000/svg" xmlns:xlink="http://www.w3.org/1999/xlink"><linearGradient id="a" gradientUnits="userSpaceOnUse" x1="0" x2="136.582" y1="68.4971" y2="68.4971"><stop offset="0" stop-color="#e41438"/><stop offset="1" stop-color="#c21e30"/></linearGradient><path clip-rule="evenodd" d="m110.7 136.8h-84.8c-14.3 0-25.9-11.6-25.9-25.9v-84.8c0-14.3 11.6-25.9 25.9-25.9h84.7c14.3 0 25.9 11.6 25.9 25.9v84.7c.1 14.4-11.5 26-25.8 26z" fill="url(#a)" fill-rule="evenodd"/><g fill="#fff"><path d="m88.6 112.3h-39.9c-5 0-9.1-4.1-9.1-9.1v-68.9c0-5 4.1-9.1 9.1-9.1h39.9c5 0 9.1 4.1 9.1 9.1v68.9c-.1 5-4.1 9.1-9.1 9.1zm-39.9-83.4c-3 0-5.4 2.4-5.4 5.4v68.9c0 3 2.4 5.4 5.4 5.4h39.9c3 0 5.4-2.4 5.4-5.4v-68.9c0-3-2.4-5.4-5.4-5.4zm0 0"/><path d="m75.9 36.2h-14.5c-3 0-5.4-2.4-5.4-5.4 0-1-.8-1.8-1.8-1.8h-3.6c-1 0-1.8-.8-1.8-1.8s.8-1.8 1.8-1.8h3.6c3 0 5.4 2.4 5.4 5.4 0 1 .8 1.8 1.8 1.8h14.5c1 0 1.8-.8 1.8-1.8 0-3 2.4-5.4 5.4-5.4h3.6c1 0 1.8.8 1.8 1.8s-.8 1.8-1.8 1.8h-3.6c-1 0-1.8.8-1.8 1.8 0 2.9-2.4 5.4-5.4 5.4zm0 0"/><path d="m66.8 76c-.5 0-.9-.2-1.3-.5l-5.4-5.4c-.7-.7-.7-1.9 0-2.6s1.9-.7 2.6 0l4 4 7.8-9.4c.6-.8 1.8-.9 2.6-.2.8.6.9 1.8.2 2.6l-9.1 10.9c-.3.4-.8.6-1.4.6.1 0 .1 0 0 0zm0 0"/><path d="m77.1 86.9h-21.3c-2.9 0-5.2-2.4-5.2-5.3v-25.7c0-2.9 2.4-5.3 5.2-5.3h25.8c2.9 0 5.2 2.4 5.2 5.3v21.2c0 1.4-.5 2.7-1.5 3.7l-4.4 4.5c-1.1 1-2.4 1.6-3.8 1.6zm-21.3-32.6c-.9 0-1.6.7-1.6 1.7v25.7c0 .9.7 1.7 1.6 1.7h21.3c.4 0 .8-.2 1.1-.5l4.4-4.5c.3-.3.5-.7.5-1.2v-21.3c0-.9-.7-1.7-1.6-1.7h-25.7zm0 0"/></g></svg>